<?xml version="1.0" standalone="yes"?><svg xmlns="http://www.w3.org/2000/svg" version="1.1" width="205" height="205" viewBox="0 0 205 205" shape-rendering="crispEdges"><rect x="0" y="0" width="205" height="205" fill="#ece8df"/><path fill="#14110d" d="M20 20h5v5H20V20M25 20h5v5H25V20M30 20h5v5H30V20M35 20h5v5H35V20M40 20h5v5H40V20M45 20h5v5H45V20M50 20h5v5H50V20M60 20h5v5H60V20M80 20h5v5H80V20M85 20h5v5H85V20M105 20h5v5H105V20M110 20h5v5H110V20M125 20h5v5H125V20M130 20h5v5H130V20M150 20h5v5H150V20M155 20h5v5H155V20M160 20h5v5H160V20M165 20h5v5H165V20M170 20h5v5H170V20M175 20h5v5H175V20M180 20h5v5H180V20M20 25h5v5H20V25M50 25h5v5H50V25M60 25h5v5H60V25M70 25h5v5H70V25M85 25h5v5H85V25M90 25h5v5H90V25M100 25h5v5H100V25M110 25h5v5H110V25M115 25h5v5H115V25M120 25h5v5H120V25M130 25h5v5H130V25M150 25h5v5H150V25M180 25h5v5H180V25M20 30h5v5H20V30M30 30h5v5H30V30M35 30h5v5H35V30M40 30h5v5H40V30M50 30h5v5H50V30M60 30h5v5H60V30M65 30h5v5H65V30M80 30h5v5H80V30M85 30h5v5H85V30M90 30h5v5H90V30M100 30h5v5H100V30M115 30h5v5H115V30M120 30h5v5H120V30M125 30h5v5H125V30M135 30h5v5H135V30M150 30h5v5H150V30M160 30h5v5H160V30M165 30h5v5H165V30M170 30h5v5H170V30M180 30h5v5H180V30M20 35h5v5H20V35M30 35h5v5H30V35M35 35h5v5H35V35M40 35h5v5H40V35M50 35h5v5H50V35M75 35h5v5H75V35M80 35h5v5H80V35M90 35h5v5H90V35M100 35h5v5H100V35M110 35h5v5H110V35M120 35h5v5H120V35M125 35h5v5H125V35M150 35h5v5H150V35M160 35h5v5H160V35M165 35h5v5H165V35M170 35h5v5H170V35M180 35h5v5H180V35M20 40h5v5H20V40M30 40h5v5H30V40M35 40h5v5H35V40M40 40h5v5H40V40M50 40h5v5H50V40M60 40h5v5H60V40M65 40h5v5H65V40M70 40h5v5H70V40M80 40h5v5H80V40M95 40h5v5H95V40M100 40h5v5H100V40M125 40h5v5H125V40M130 40h5v5H130V40M150 40h5v5H150V40M160 40h5v5H160V40M165 40h5v5H165V40M170 40h5v5H170V40M180 40h5v5H180V40M20 45h5v5H20V45M50 45h5v5H50V45M65 45h5v5H65V45M70 45h5v5H70V45M85 45h5v5H85V45M90 45h5v5H90V45M95 45h5v5H95V45M100 45h5v5H100V45M105 45h5v5H105V45M110 45h5v5H110V45M115 45h5v5H115V45M130 45h5v5H130V45M135 45h5v5H135V45M150 45h5v5H150V45M180 45h5v5H180V45M20 50h5v5H20V50M25 50h5v5H25V50M30 50h5v5H30V50M35 50h5v5H35V50M40 50h5v5H40V50M45 50h5v5H45V50M50 50h5v5H50V50M60 50h5v5H60V50M70 50h5v5H70V50M80 50h5v5H80V50M90 50h5v5H90V50M100 50h5v5H100V50M110 50h5v5H110V50M120 50h5v5H120V50M130 50h5v5H130V50M140 50h5v5H140V50M150 50h5v5H150V50M155 50h5v5H155V50M160 50h5v5H160V50M165 50h5v5H165V50M170 50h5v5H170V50M175 50h5v5H175V50M180 50h5v5H180V50M85 55h5v5H85V55M90 55h5v5H90V55M95 55h5v5H95V55M100 55h5v5H100V55M110 55h5v5H110V55M130 55h5v5H130V55M135 55h5v5H135V55M20 60h5v5H20V60M35 60h5v5H35V60M40 60h5v5H40V60M45 60h5v5H45V60M50 60h5v5H50V60M55 60h5v5H55V60M60 60h5v5H60V60M65 60h5v5H65V60M70 60h5v5H70V60M75 60h5v5H75V60M90 60h5v5H90V60M105 60h5v5H105V60M120 60h5v5H120V60M135 60h5v5H135V60M140 60h5v5H140V60M145 60h5v5H145V60M160 60h5v5H160V60M170 60h5v5H170V60M175 60h5v5H175V60M180 60h5v5H180V60M20 65h5v5H20V65M25 65h5v5H25V65M35 65h5v5H35V65M45 65h5v5H45V65M55 65h5v5H55V65M60 65h5v5H60V65M65 65h5v5H65V65M80 65h5v5H80V65M85 65h5v5H85V65M90 65h5v5H90V65M95 65h5v5H95V65M105 65h5v5H105V65M115 65h5v5H115V65M135 65h5v5H135V65M160 65h5v5H160V65M165 65h5v5H165V65M170 65h5v5H170V65M50 70h5v5H50V70M70 70h5v5H70V70M75 70h5v5H75V70M85 70h5v5H85V70M95 70h5v5H95V70M100 70h5v5H100V70M135 70h5v5H135V70M145 70h5v5H145V70M160 70h5v5H160V70M165 70h5v5H165V70M170 70h5v5H170V70M175 70h5v5H175V70M180 70h5v5H180V70M45 75h5v5H45V75M55 75h5v5H55V75M75 75h5v5H75V75M85 75h5v5H85V75M95 75h5v5H95V75M110 75h5v5H110V75M130 75h5v5H130V75M135 75h5v5H135V75M140 75h5v5H140V75M145 75h5v5H145V75M150 75h5v5H150V75M155 75h5v5H155V75M170 75h5v5H170V75M25 80h5v5H25V80M35 80h5v5H35V80M40 80h5v5H40V80M50 80h5v5H50V80M60 80h5v5H60V80M75 80h5v5H75V80M85 80h5v5H85V80M105 80h5v5H105V80M130 80h5v5H130V80M140 80h5v5H140V80M150 80h5v5H150V80M155 80h5v5H155V80M180 80h5v5H180V80M20 85h5v5H20V85M40 85h5v5H40V85M45 85h5v5H45V85M60 85h5v5H60V85M85 85h5v5H85V85M90 85h5v5H90V85M110 85h5v5H110V85M115 85h5v5H115V85M120 85h5v5H120V85M135 85h5v5H135V85M145 85h5v5H145V85M155 85h5v5H155V85M165 85h5v5H165V85M170 85h5v5H170V85M25 90h5v5H25V90M45 90h5v5H45V90M50 90h5v5H50V90M55 90h5v5H55V90M70 90h5v5H70V90M95 90h5v5H95V90M115 90h5v5H115V90M120 90h5v5H120V90M125 90h5v5H125V90M140 90h5v5H140V90M150 90h5v5H150V90M155 90h5v5H155V90M165 90h5v5H165V90M170 90h5v5H170V90M30 95h5v5H30V95M75 95h5v5H75V95M80 95h5v5H80V95M85 95h5v5H85V95M100 95h5v5H100V95M120 95h5v5H120V95M145 95h5v5H145V95M160 95h5v5H160V95M165 95h5v5H165V95M170 95h5v5H170V95M180 95h5v5H180V95M25 100h5v5H25V100M35 100h5v5H35V100M40 100h5v5H40V100M45 100h5v5H45V100M50 100h5v5H50V100M60 100h5v5H60V100M85 100h5v5H85V100M90 100h5v5H90V100M95 100h5v5H95V100M120 100h5v5H120V100M130 100h5v5H130V100M135 100h5v5H135V100M145 100h5v5H145V100M150 100h5v5H150V100M155 100h5v5H155V100M160 100h5v5H160V100M165 100h5v5H165V100M20 105h5v5H20V105M25 105h5v5H25V105M30 105h5v5H30V105M45 105h5v5H45V105M55 105h5v5H55V105M60 105h5v5H60V105M65 105h5v5H65V105M70 105h5v5H70V105M80 105h5v5H80V105M85 105h5v5H85V105M90 105h5v5H90V105M95 105h5v5H95V105M100 105h5v5H100V105M105 105h5v5H105V105M110 105h5v5H110V105M115 105h5v5H115V105M120 105h5v5H120V105M125 105h5v5H125V105M130 105h5v5H130V105M150 105h5v5H150V105M160 105h5v5H160V105M170 105h5v5H170V105M175 105h5v5H175V105M180 105h5v5H180V105M35 110h5v5H35V110M40 110h5v5H40V110M45 110h5v5H45V110M50 110h5v5H50V110M60 110h5v5H60V110M75 110h5v5H75V110M80 110h5v5H80V110M85 110h5v5H85V110M95 110h5v5H95V110M105 110h5v5H105V110M110 110h5v5H110V110M115 110h5v5H115V110M135 110h5v5H135V110M140 110h5v5H140V110M155 110h5v5H155V110M165 110h5v5H165V110M170 110h5v5H170V110M180 110h5v5H180V110M30 115h5v5H30V115M35 115h5v5H35V115M40 115h5v5H40V115M45 115h5v5H45V115M55 115h5v5H55V115M65 115h5v5H65V115M70 115h5v5H70V115M75 115h5v5H75V115M80 115h5v5H80V115M85 115h5v5H85V115M90 115h5v5H90V115M95 115h5v5H95V115M100 115h5v5H100V115M130 115h5v5H130V115M160 115h5v5H160V115M165 115h5v5H165V115M170 115h5v5H170V115M175 115h5v5H175V115M180 115h5v5H180V115M20 120h5v5H20V120M25 120h5v5H25V120M35 120h5v5H35V120M40 120h5v5H40V120M45 120h5v5H45V120M50 120h5v5H50V120M60 120h5v5H60V120M80 120h5v5H80V120M85 120h5v5H85V120M90 120h5v5H90V120M100 120h5v5H100V120M110 120h5v5H110V120M115 120h5v5H115V120M125 120h5v5H125V120M130 120h5v5H130V120M155 120h5v5H155V120M165 120h5v5H165V120M180 120h5v5H180V120M20 125h5v5H20V125M25 125h5v5H25V125M35 125h5v5H35V125M40 125h5v5H40V125M55 125h5v5H55V125M60 125h5v5H60V125M70 125h5v5H70V125M75 125h5v5H75V125M85 125h5v5H85V125M130 125h5v5H130V125M135 125h5v5H135V125M155 125h5v5H155V125M160 125h5v5H160V125M20 130h5v5H20V130M30 130h5v5H30V130M40 130h5v5H40V130M50 130h5v5H50V130M70 130h5v5H70V130M75 130h5v5H75V130M85 130h5v5H85V130M90 130h5v5H90V130M110 130h5v5H110V130M115 130h5v5H115V130M120 130h5v5H120V130M130 130h5v5H130V130M135 130h5v5H135V130M150 130h5v5H150V130M155 130h5v5H155V130M175 130h5v5H175V130M180 130h5v5H180V130M20 135h5v5H20V135M35 135h5v5H35V135M40 135h5v5H40V135M60 135h5v5H60V135M65 135h5v5H65V135M85 135h5v5H85V135M90 135h5v5H90V135M95 135h5v5H95V135M105 135h5v5H105V135M110 135h5v5H110V135M115 135h5v5H115V135M120 135h5v5H120V135M135 135h5v5H135V135M145 135h5v5H145V135M155 135h5v5H155V135M160 135h5v5H160V135M170 135h5v5H170V135M175 135h5v5H175V135M180 135h5v5H180V135M20 140h5v5H20V140M25 140h5v5H25V140M35 140h5v5H35V140M40 140h5v5H40V140M45 140h5v5H45V140M50 140h5v5H50V140M55 140h5v5H55V140M75 140h5v5H75V140M80 140h5v5H80V140M85 140h5v5H85V140M90 140h5v5H90V140M100 140h5v5H100V140M110 140h5v5H110V140M120 140h5v5H120V140M140 140h5v5H140V140M145 140h5v5H145V140M150 140h5v5H150V140M155 140h5v5H155V140M160 140h5v5H160V140M165 140h5v5H165V140M60 145h5v5H60V145M95 145h5v5H95V145M100 145h5v5H100V145M105 145h5v5H105V145M110 145h5v5H110V145M125 145h5v5H125V145M140 145h5v5H140V145M160 145h5v5H160V145M170 145h5v5H170V145M175 145h5v5H175V145M20 150h5v5H20V150M25 150h5v5H25V150M30 150h5v5H30V150M35 150h5v5H35V150M40 150h5v5H40V150M45 150h5v5H45V150M50 150h5v5H50V150M60 150h5v5H60V150M70 150h5v5H70V150M80 150h5v5H80V150M95 150h5v5H95V150M105 150h5v5H105V150M115 150h5v5H115V150M135 150h5v5H135V150M140 150h5v5H140V150M150 150h5v5H150V150M160 150h5v5H160V150M170 150h5v5H170V150M20 155h5v5H20V155M50 155h5v5H50V155M60 155h5v5H60V155M65 155h5v5H65V155M75 155h5v5H75V155M80 155h5v5H80V155M85 155h5v5H85V155M100 155h5v5H100V155M105 155h5v5H105V155M110 155h5v5H110V155M115 155h5v5H115V155M125 155h5v5H125V155M130 155h5v5H130V155M135 155h5v5H135V155M140 155h5v5H140V155M160 155h5v5H160V155M165 155h5v5H165V155M170 155h5v5H170V155M175 155h5v5H175V155M180 155h5v5H180V155M20 160h5v5H20V160M30 160h5v5H30V160M35 160h5v5H35V160M40 160h5v5H40V160M50 160h5v5H50V160M60 160h5v5H60V160M65 160h5v5H65V160M85 160h5v5H85V160M90 160h5v5H90V160M100 160h5v5H100V160M105 160h5v5H105V160M115 160h5v5H115V160M125 160h5v5H125V160M130 160h5v5H130V160M135 160h5v5H135V160M140 160h5v5H140V160M145 160h5v5H145V160M150 160h5v5H150V160M155 160h5v5H155V160M160 160h5v5H160V160M175 160h5v5H175V160M180 160h5v5H180V160M20 165h5v5H20V165M30 165h5v5H30V165M35 165h5v5H35V165M40 165h5v5H40V165M50 165h5v5H50V165M60 165h5v5H60V165M70 165h5v5H70V165M75 165h5v5H75V165M85 165h5v5H85V165M100 165h5v5H100V165M110 165h5v5H110V165M130 165h5v5H130V165M135 165h5v5H135V165M145 165h5v5H145V165M155 165h5v5H155V165M165 165h5v5H165V165M180 165h5v5H180V165M20 170h5v5H20V170M30 170h5v5H30V170M35 170h5v5H35V170M40 170h5v5H40V170M50 170h5v5H50V170M70 170h5v5H70V170M75 170h5v5H75V170M85 170h5v5H85V170M90 170h5v5H90V170M95 170h5v5H95V170M115 170h5v5H115V170M125 170h5v5H125V170M145 170h5v5H145V170M155 170h5v5H155V170M160 170h5v5H160V170M170 170h5v5H170V170M175 170h5v5H175V170M180 170h5v5H180V170M20 175h5v5H20V175M50 175h5v5H50V175M65 175h5v5H65V175M110 175h5v5H110V175M115 175h5v5H115V175M120 175h5v5H120V175M130 175h5v5H130V175M145 175h5v5H145V175M155 175h5v5H155V175M160 175h5v5H160V175M165 175h5v5H165V175M170 175h5v5H170V175M175 175h5v5H175V175M180 175h5v5H180V175M20 180h5v5H20V180M25 180h5v5H25V180M30 180h5v5H30V180M35 180h5v5H35V180M40 180h5v5H40V180M45 180h5v5H45V180M50 180h5v5H50V180M60 180h5v5H60V180M70 180h5v5H70V180M85 180h5v5H85V180M95 180h5v5H95V180M100 180h5v5H100V180M105 180h5v5H105V180M115 180h5v5H115V180M130 180h5v5H130V180M140 180h5v5H140V180M150 180h5v5H150V180M155 180h5v5H155V180M160 180h5v5H160V180M165 180h5v5H165V180"/></svg>